# xmcd
#
# Track frame offsets:
#   150
#   18259
#   19952
#   42684
#   44845
#   72946
#   75085
#   96856
#   99590
#   108980
#   120653
#   144528
#   144873
#   148186
#   172165
#   176087
#
# Disc length: 2602 seconds
#
# Revision: 0
# Processed by: cddbd v1.5.2PL0 Copyright (c) Steve Scherf et al.
# Submitted via: GXTranscoder 2.24.2980
#
DISCID=e50a2810
DTITLE=Dixie Chicks - An Evening with the Dixie Chicks
DYEAR=2002
DGENRE=Country
TTITLE0=Long time gone
TTITLE1=Applause
TTITLE2=Landslide
TTITLE3=Applause
TTITLE4=Travelin' Soldier
TTITLE5=Applause
TTITLE6=Truth No.2
TTITLE7=Applause
TTITLE8=Introduction to song white trash wedding
TTITLE9=White trash wedding
TTITLE10=A Home
TTITLE11=Applause
TTITLE12=Introduction to song more love
TTITLE13=More Love
TTITLE14=Applause and Introduction to I believe in love
TTITLE15=I believe in love
EXTD=
EXTT0=
EXTT1=
EXTT2=
EXTT3=
EXTT4=
EXTT5=
EXTT6=
EXTT7=
EXTT8=
EXTT9=
EXTT10=
EXTT11=
EXTT12=
EXTT13=
EXTT14=
EXTT15=
PLAYORDER=
